<svg width="360" height="360" viewBox="0 0 360 360" fill="none" xmlns="http://www.w3.org/2000/svg">
<g clip-path="url(#clip0_69_16)">
<path d="M180 354C276.098 354 354 276.098 354 180C354 83.9025 276.098 6 180 6C83.9025 6 6 83.9025 6 180C6 276.098 83.9025 354 180 354Z" fill="url(#paint0_linear_69_16)" stroke="url(#paint1_linear_69_16)" stroke-width="12"/>
<g filter="url(#filter0_di_69_16)">
<path d="M147.156 170.852L148.562 104.055C155.125 103.586 160.086 103.352 163.445 103.352C174.539 103.352 183.367 105.852 189.93 110.852C196.492 115.773 199.773 123.586 199.773 134.289C199.773 158.664 182.234 170.852 147.156 170.852ZM148.328 260.031L147.156 178C153.406 177.531 159.5 177.297 165.438 177.297C182.234 177.297 195.594 180.383 205.516 186.555C215.438 192.727 220.398 202.453 220.398 215.734C220.398 223.547 218.953 230.266 216.062 235.891C213.172 241.438 209.539 245.734 205.164 248.781C200.867 251.828 195.281 254.25 188.406 256.047C181.531 257.766 175.125 258.859 169.188 259.328C163.328 259.797 156.375 260.031 148.328 260.031ZM166.375 254.992C173.406 254.523 179.578 253.703 184.891 252.531C190.281 251.359 195.398 249.406 200.242 246.672C205.164 243.938 208.953 239.992 211.609 234.836C214.266 229.602 215.594 223.234 215.594 215.734C215.594 207.688 212.859 200.93 207.391 195.461C201.922 189.914 195.477 186.164 188.055 184.211C180.633 182.18 173.016 181.555 165.203 182.336L166.375 254.992ZM166.375 108.391L165.438 165.227C185.125 162.258 194.969 151.945 194.969 134.289C194.969 118.117 185.438 109.484 166.375 108.391ZM98.6406 268.703C113.875 268.234 132.039 268 153.133 268C160.164 268 166.492 267.844 172.117 267.531C177.742 267.219 184.461 266.555 192.273 265.539C200.086 264.445 206.922 262.688 212.781 260.266C218.641 257.766 224.266 254.68 229.656 251.008C235.125 247.258 239.305 242.375 242.195 236.359C245.086 230.266 246.531 223.195 246.531 215.148C246.531 202.883 241.727 192.844 232.117 185.031C222.508 177.141 210.672 172.062 196.609 169.797V168.859C205.75 165.969 213.094 161.672 218.641 155.969C224.266 150.188 227.078 142.961 227.078 134.289C227.078 108.586 207.547 95.7344 168.484 95.7344C165.438 95.7344 160.32 95.8906 153.133 96.2031C145.945 96.5156 137.977 96.6719 129.227 96.6719C120.555 96.6719 110.438 96.3594 98.875 95.7344C98.25 97.1406 98.25 98.9766 98.875 101.242C116.844 102.961 125.906 106.711 126.062 112.492C126.844 130.852 127.234 152.688 127.234 178C127.234 202.766 126.766 227.414 125.828 251.945C125.672 257.727 116.609 261.477 98.6406 263.195C98.0156 264.445 98.0156 266.281 98.6406 268.703ZM95.5938 90.6953C106.922 91.1641 117.625 91.3984 127.703 91.3984C137.781 91.3984 147.625 91.3203 157.234 91.1641C166.844 91.0078 173.406 90.9297 176.922 90.9297C183.484 90.9297 189.422 91.1641 194.734 91.6328C200.125 92.1016 206.102 93.2344 212.664 95.0312C219.227 96.75 224.734 99.0938 229.188 102.062C233.719 105.031 237.508 109.289 240.555 114.836C243.602 120.305 245.125 126.789 245.125 134.289C245.125 148.195 237.43 159.406 222.039 167.922C234.695 171.594 244.93 177.492 252.742 185.617C260.633 193.664 264.578 203.508 264.578 215.148C264.578 222.727 263.289 229.523 260.711 235.539C258.133 241.477 254.852 246.438 250.867 250.422C246.883 254.328 241.805 257.727 235.633 260.617C229.461 263.43 223.523 265.617 217.82 267.18C212.117 268.664 205.555 269.836 198.133 270.695C190.711 271.633 184.344 272.219 179.031 272.453C173.797 272.688 167.977 272.805 161.57 272.805C142.977 272.805 120.906 273.117 95.3594 273.742C93.4062 268.352 93.4062 263.312 95.3594 258.625C112.312 256.906 120.867 254.602 121.023 251.711C121.961 227.18 122.43 202.609 122.43 178C122.43 152.844 122.039 131.086 121.258 112.727C121.102 109.836 112.391 107.531 95.125 105.812C93.7969 100.812 93.9531 95.7734 95.5938 90.6953Z" fill="#104FEE"/>
</g>
</g>
<defs>
<filter id="filter0_di_69_16" x="89.8945" y="90.6953" width="178.684" height="191.047" filterUnits="userSpaceOnUse" color-interpolation-filters="sRGB">
<feFlood flood-opacity="0" result="BackgroundImageFix"/>
<feColorMatrix in="SourceAlpha" type="matrix" values="0 0 0 0 0 0 0 0 0 0 0 0 0 0 0 0 0 0 127 0" result="hardAlpha"/>
<feOffset dy="4"/>
<feGaussianBlur stdDeviation="2"/>
<feComposite in2="hardAlpha" operator="out"/>
<feColorMatrix type="matrix" values="0 0 0 0 0 0 0 0 0 0 0 0 0 0 0 0 0 0 0.25 0"/>
<feBlend mode="normal" in2="BackgroundImageFix" result="effect1_dropShadow_69_16"/>
<feBlend mode="normal" in="SourceGraphic" in2="effect1_dropShadow_69_16" result="shape"/>
<feColorMatrix in="SourceAlpha" type="matrix" values="0 0 0 0 0 0 0 0 0 0 0 0 0 0 0 0 0 0 127 0" result="hardAlpha"/>
<feOffset dx="2" dy="2"/>
<feComposite in2="hardAlpha" operator="arithmetic" k2="-1" k3="1"/>
<feColorMatrix type="matrix" values="0 0 0 0 1 0 0 0 0 1 0 0 0 0 1 0 0 0 0.6 0"/>
<feBlend mode="normal" in2="shape" result="effect2_innerShadow_69_16"/>
</filter>
<linearGradient id="paint0_linear_69_16" x1="49" y1="52.5" x2="312" y2="307" gradientUnits="userSpaceOnUse">
<stop stop-color="#6F82FF" stop-opacity="0.3"/>
<stop offset="1" stop-color="#8090FA" stop-opacity="0.1"/>
</linearGradient>
<linearGradient id="paint1_linear_69_16" x1="77" y1="48.5" x2="289.5" y2="331" gradientUnits="userSpaceOnUse">
<stop stop-color="#7083FF"/>
<stop offset="1" stop-color="#B2B9EA" stop-opacity="0.3"/>
</linearGradient>
<clipPath id="clip0_69_16">
<rect width="360" height="360" fill="white"/>
</clipPath>
</defs>
</svg>
